<svg width="92" height="92" viewBox="0 0 92 92" fill="none" xmlns="http://www.w3.org/2000/svg">
<rect width="92" height="92" rx="46" fill="white" fill-opacity="0.1"/>
<path d="M41.775 25.4817L28.7317 33.9967C24.55 36.7267 24.55 42.8367 28.7317 45.5667L41.775 54.0817C44.115 55.62 47.9717 55.62 50.3117 54.0817L63.29 45.5667C67.45 42.8367 67.45 36.7483 63.29 34.0183L50.3117 25.5034C47.9717 23.9433 44.115 23.9434 41.775 25.4817Z" stroke="#3ECAB0" stroke-width="2.5" stroke-linecap="round" stroke-linejoin="round"/>
<path opacity="0.4" d="M32.1983 48.34L32.1766 58.5017C32.1766 61.2534 34.3 64.2 36.9 65.0667L43.8116 67.3634C45.0033 67.7534 46.975 67.7534 48.1883 67.3634L55.1 65.0667C57.7 64.2 59.8233 61.2534 59.8233 58.5017V48.4484" stroke="#3ECAB0" stroke-width="2.5" stroke-linecap="round" stroke-linejoin="round"/>
<path opacity="0.4" d="M66.3667 52.5V39.5" stroke="#3ECAB0" stroke-width="2.5" stroke-linecap="round" stroke-linejoin="round"/>
</svg>
