<svg width="68" height="26" viewBox="0 0 68 26" fill="none" xmlns="http://www.w3.org/2000/svg">
<g clip-path="url(#clip0_247_1686)">
<path d="M16.141 0C13.4854 0 10.9387 1.04871 9.06091 2.91543L2.93268 9.00761C1.05492 10.8743 0 13.4061 0 16.0461C0 21.5435 4.48289 26 10.0128 26C12.6684 26 15.2152 24.9512 17.0929 23.0845L21.3319 18.8705C21.3319 18.8706 21.3319 18.8705 21.3319 18.8705L33.6827 6.59239C34.5795 5.70086 35.7958 5.2 37.0641 5.2C39.1874 5.2 40.9876 6.57576 41.6117 8.47953L45.5096 4.60457C43.7314 1.83589 40.6134 0 37.0641 0C34.4085 0 31.8617 1.04871 29.984 2.91543L13.3943 19.4076C12.4974 20.2992 11.2811 20.8 10.0128 20.8C7.37176 20.8 5.23077 18.6716 5.23077 16.0461C5.23077 14.7852 5.73459 13.5761 6.63139 12.6845L12.7596 6.59239C13.6564 5.70086 14.8727 5.2 16.141 5.2C18.2645 5.2 20.0645 6.57582 20.6887 8.47965L24.5866 4.60466C22.8084 1.83595 19.6904 0 16.141 0Z" fill="#4F94D7"/>
<path d="M34.3173 19.4076C33.4205 20.2992 32.2042 20.8 30.9359 20.8C28.8128 20.8 27.0128 19.4246 26.3885 17.5211L22.4907 21.396C24.269 24.1643 27.3868 26 30.9359 26C33.5915 26 36.1382 24.9512 38.016 23.0845L54.6057 6.59239C55.5025 5.70086 56.7189 5.2 57.9872 5.2C60.6283 5.2 62.7692 7.32839 62.7692 9.95393C62.7692 11.2148 62.2654 12.4239 61.3686 13.3155L55.2404 19.4076C54.3436 20.2992 53.1272 20.8 51.859 20.8C49.7357 20.8 47.9356 19.4243 47.3114 17.5207L43.4136 21.3957C45.1918 24.1642 48.3097 26 51.859 26C54.5145 26 57.0613 24.9512 58.9391 23.0845L65.0673 16.9924C66.945 15.1257 68 12.5939 68 9.95393C68 4.45652 63.5171 0 57.9872 0C55.3316 0 52.7848 1.04871 50.9071 2.91543L34.3173 19.4076Z" fill="#3ECAB0"/>
</g>
<defs>
<clipPath id="clip0_247_1686">
<rect width="68" height="26" fill="white"/>
</clipPath>
</defs>
</svg>
